<svg xmlns="http://www.w3.org/2000/svg" width="512" height="512" viewBox="0 0 512 512">
  <defs>
    <linearGradient id="bg" x1="0" y1="0" x2="1" y2="1">
      <stop offset="0" stop-color="#0f172a"/>
      <stop offset="1" stop-color="#1e3a8a"/>
    </linearGradient>
  </defs>
  <rect width="512" height="512" rx="110" fill="url(#bg)"/>
  <g stroke="#334155" stroke-width="2" opacity="0.5">
    <line x1="70" y1="150" x2="442" y2="150"/>
    <line x1="70" y1="256" x2="442" y2="256"/>
    <line x1="70" y1="362" x2="442" y2="362"/>
  </g>
  <line x1="80" y1="400" x2="440" y2="190" stroke="#38bdf8" stroke-width="6" stroke-linecap="round" opacity="0.55" stroke-dasharray="2 14"/>
  <line x1="80" y1="320" x2="440" y2="110" stroke="#38bdf8" stroke-width="6" stroke-linecap="round" opacity="0.55" stroke-dasharray="2 14"/>
  <g stroke-width="0">
    <rect x="120" y="250" width="34" height="90" rx="6" fill="#ef4444"/>
    <rect x="132" y="220" width="10" height="150" fill="#ef4444"/>
    <rect x="190" y="210" width="34" height="110" rx="6" fill="#22c55e"/>
    <rect x="202" y="180" width="10" height="170" fill="#22c55e"/>
    <rect x="260" y="270" width="34" height="70" rx="6" fill="#ef4444"/>
    <rect x="272" y="245" width="10" height="120" fill="#ef4444"/>
    <rect x="330" y="180" width="34" height="120" rx="6" fill="#22c55e"/>
    <rect x="342" y="150" width="10" height="180" fill="#22c55e"/>
  </g>
  <path d="M150 360 L250 300 L320 330 L420 150" fill="none" stroke="#fbbf24" stroke-width="14" stroke-linecap="round" stroke-linejoin="round"/>
  <path d="M388 150 L424 142 L420 182 Z" fill="#fbbf24"/>
</svg>
